<?xml version="1.0" standalone="no"?><!DOCTYPE svg PUBLIC "-//W3C//DTD SVG 1.1//EN" "http://www.w3.org/Graphics/SVG/1.1/DTD/svg11.dtd"><svg t="1520586018582" class="icon" style="" viewBox="0 0 1024 1024" version="1.1" xmlns="http://www.w3.org/2000/svg" p-id="2967" xmlns:xlink="http://www.w3.org/1999/xlink" width="32" height="32"><defs><style type="text/css"></style></defs><path d="M365.066 197.39c0 0 0 0 0 0 0 58.569 47.479 106.048 106.048 106.048 58.569 0 106.048-47.479 106.048-106.048 0 0 0 0 0 0 0-58.569-47.479-106.048-106.048-106.048-58.569 0-106.048 47.479-106.048 106.048 0 0 0 0 0 0z" fill="#8a8a8a" p-id="2968"></path><path d="M365.066 512c0 0 0 0 0 0 0 58.569 47.479 106.048 106.048 106.048 58.569 0 106.048-47.479 106.048-106.048 0 0 0 0 0 0 0-58.569-47.479-106.048-106.048-106.048-58.569 0-106.048 47.479-106.048 106.048 0 0 0 0 0 0z" fill="#8a8a8a" p-id="2969"></path><path d="M365.066 826.61c0 0 0 0 0 0 0 58.569 47.479 106.048 106.048 106.048 58.569 0 106.048-47.479 106.048-106.048 0 0 0 0 0 0 0-58.569-47.479-106.048-106.048-106.048-58.569 0-106.048 47.479-106.048 106.048 0 0 0 0 0 0z" fill="#8a8a8a" p-id="2970"></path></svg>